<svg xmlns="http://www.w3.org/2000/svg" viewBox="0 0 181.1 61.66"><defs><style>.cls-1{fill:#0c2340;}</style></defs><title>Asset 1</title><g id="Layer_2" data-name="Layer 2"><g id="Layer_1-2" data-name="Layer 1"><rect class="cls-1" x="109.33" y="0.03" width="5.91" height="40.49"/><rect class="cls-1" x="117.11" y="34.82" width="16.01" height="5.7"/><path class="cls-1" d="M94.12,20.29A17.64,17.64,0,0,0,82,3.54l-.08.6A17,17,0,0,1,93.53,20.29H90.89A14.38,14.38,0,1,1,76.51,5.91a14.06,14.06,0,0,1,3.33.4L80.52.4A20.29,20.29,0,1,0,96.8,20.29Z"/><path class="cls-1" d="M181.1,13.27a20.29,20.29,0,1,0-19,27.51c.46,0,.91,0,1.36-.05l-.27-5.9c-.36,0-.72,0-1.09,0a14.38,14.38,0,1,1,13.5-19.33l2.44-1a16.81,16.81,0,0,1,1.08,6,17,17,0,0,1-14,16.76l0,.6A17.6,17.6,0,0,0,178.63,14.3Z"/><path class="cls-1" d="M21.26,12.19,12.78,31.43S7.56,2.8,7.08.11H0L7.9,40.58h8.21l8.16-19.83,7.54,19.83h7.66l-12-28.39Z"/><polygon class="cls-1" points="40.72 0.11 36.11 26.3 41.26 38.25 47.81 0.11 40.72 0.11"/><path class="cls-1" d="M93.62,9.94a3,3,0,1,1-3-3,3,3,0,0,1,3,3"/><path class="cls-1" d="M65,58.79a3.1,3.1,0,0,0-.92-.35,12,12,0,0,1-1.28-.38.45.45,0,0,1-.29-.42.51.51,0,0,1,.26-.46,1,1,0,0,1,.54-.14c.66,0,1,.27,1,.8h1.12a1.48,1.48,0,0,0-.65-1.3,2.5,2.5,0,0,0-1.46-.39,2.28,2.28,0,0,0-1.34.39,1.38,1.38,0,0,0-.63,1.2A1.29,1.29,0,0,0,62.17,59c.07,0,.58.19,1.51.45.54.16.81.38.81.68a.55.55,0,0,1-.36.53,1.47,1.47,0,0,1-.66.13,1.39,1.39,0,0,1-.81-.22.89.89,0,0,1-.36-.76H61.19a1.64,1.64,0,0,0,.67,1.43,2.58,2.58,0,0,0,1.57.45,2.48,2.48,0,0,0,1.62-.48A1.47,1.47,0,0,0,65.61,60,1.31,1.31,0,0,0,65,58.79"/><path class="cls-1" d="M79.72,56.27H77.35v5.26h1.16V59.64h1.21a1.79,1.79,0,0,0,1.4-.52,1.83,1.83,0,0,0,0-2.33,1.83,1.83,0,0,0-1.4-.52m.39,2.34a1.41,1.41,0,0,1-.7.14h-.9V57.17h.9a1.41,1.41,0,0,1,.7.14.69.69,0,0,1,.31.65.7.7,0,0,1-.31.65"/><path class="cls-1" d="M94.75,56.27l-2,5.26h1.17l.41-1.17h2l.39,1.17h1.21l-2-5.26Zm-.11,3.23.69-1.93h0L96,59.5Z"/><path class="cls-1" d="M112.6,60.35a1.1,1.1,0,0,1-.83.33,1.24,1.24,0,0,1-1.1-.55,2.06,2.06,0,0,1-.33-1.21,2.14,2.14,0,0,1,.33-1.24,1.32,1.32,0,0,1,1.87-.3,1,1,0,0,1,.38.66H114a2,2,0,0,0-.75-1.4,2.36,2.36,0,0,0-1.52-.5,2.4,2.4,0,0,0-1.9.81,2.83,2.83,0,0,0-.68,2,2.77,2.77,0,0,0,.68,1.94,2.44,2.44,0,0,0,1.9.8,2.26,2.26,0,0,0,1.6-.59,2.29,2.29,0,0,0,.71-1.57H113a1.48,1.48,0,0,1-.37.85"/><polygon class="cls-1" points="127.08 59.27 129.63 59.27 129.63 58.37 127.08 58.37 127.08 57.24 129.86 57.24 129.86 56.27 125.92 56.27 125.92 61.53 129.92 61.53 129.92 60.56 127.08 60.56 127.08 59.27"/></g></g></svg>